<svg xmlns="http://www.w3.org/2000/svg" viewBox="0 0 64 64"><defs><style>.a{fill:#000842;}.b{fill:#fff;}.c{fill:#f6ae2d;}</style></defs><rect class="a" width="64" height="64"/><circle class="b" cx="16.32" cy="24.27" r="4.51"/><path class="b" d="M25.41,43.85H20.1V38.67l1.26,1.27a1.25,1.25,0,0,0,.47.33,1.57,1.57,0,0,0,1.92-.07,1.25,1.25,0,0,0,.33-.26l.27-.27.2-.2,3.25-3.25A1.6,1.6,0,0,0,25.54,34L23.48,36,19,31.51h0a4,4,0,0,0-3-1.27,4.21,4.21,0,0,0-4.18,4.19V46.84h0a3,3,0,0,0,3.06,3H24v6.77a2.26,2.26,0,1,0,4.51,0V46.9a1.22,1.22,0,0,0-.06-.46A3.12,3.12,0,0,0,25.41,43.85Z"/><polygon class="b" points="9.95 35.13 7.71 35.13 7.71 53.98 20.92 53.98 20.92 51.75 9.95 51.75 9.95 35.13"/><path class="c" d="M47.8,28.86a4.45,4.45,0,1,0-4.45-4.44A4.44,4.44,0,0,0,47.8,28.86Z"/><path class="c" d="M52.25,46.72V34.17a4.07,4.07,0,0,0-4-4.05h-.13a4.07,4.07,0,0,0-4,4.05v9.49H38.64a3,3,0,0,0-3,3.06v9.82a2.42,2.42,0,0,0,1.72,2.32,2.29,2.29,0,0,0,2.79-2.25V49.77h9A3.09,3.09,0,0,0,52.25,46.72Z"/><polygon class="b" points="54.05 34.74 54.05 51.75 43.08 51.75 43.08 53.98 56.29 53.98 56.29 34.74 54.76 34.74 54.05 34.74"/><path class="b" d="M33.2,3.64h0c5.93,0,10.73,3.89,10.73,8.69S39.13,21,33.2,21a13.3,13.3,0,0,1-1.68-.1c-2.3,2.29-5,2.71-7.63,2.77v-.57a4.15,4.15,0,0,0,2.6-3.44,3.81,3.81,0,0,0,0-.59,8.19,8.19,0,0,1-4-6.76c0-4.8,4.81-8.69,10.74-8.69Z"/></svg>