<svg xmlns="http://www.w3.org/2000/svg" viewBox="0 0 32 32"><defs><style>.a{fill:#fff;}.b{fill:#000842;}.c{fill:#f6ae2d;}</style></defs><rect class="a" width="32" height="32"/><rect class="b" x="9.83" y="15.99" width="1.22" height="2.73"/><path class="c" d="M9.83,18.72h1.22V16H9.83ZM7.38,6.45h6.88V25.54H11.05V20.36H7.38V16H6.16V14.63H7.38V11.9H6.16V10.54H7.38V6.45Zm2.45,8.18h1.22V11.9H9.83Zm0-4.09h1.22V7.81H9.83Z"/><path class="b" d="M11.21,5.36V3.72H6V5.36Zm4.28,0V26.5l-13.77.13V5.36H4.79V2.63h7.64V5.36ZM14.26,6.45H3V25.54H6.16V20.36h4.89v5.18h3.21ZM9.83,25.54V21.45H7.38v4.09Z"/><rect class="b" x="6.16" y="15.99" width="1.22" height="2.73"/><rect class="b" x="6.16" y="11.9" width="1.22" height="2.73"/><rect class="b" x="6.16" y="7.81" width="1.22" height="2.73"/><polygon class="c" points="6.16 20.36 6.16 25.54 2.95 25.54 2.95 6.45 7.38 6.45 7.38 7.8 6.16 7.8 6.16 10.54 6.16 11.89 6.16 14.63 6.16 15.98 6.16 18.71 7.38 18.71 7.38 20.36 6.16 20.36"/><rect class="b" x="9.83" y="7.81" width="1.22" height="2.73"/><rect class="b" x="9.83" y="11.9" width="1.22" height="2.73"/><rect class="a" x="6.01" y="3.72" width="5.2" height="1.64"/><path class="b" d="M23.65,9.41A4.38,4.38,0,1,0,28,13.79,4.38,4.38,0,0,0,23.65,9.41Z"/><path class="b" d="M26.62,19.22h-6c-1.75,0-3.18,1.78-3.18,3.94v6.63H29.81V23.16C29.81,21,28.37,19.22,26.62,19.22Z"/><path class="a" d="M22.77,20.68h1.74c.1,0,.17.06.16.14l-.22,1.86c0,.06-.07.11-.16.11H23c-.09,0-.16-.05-.16-.11l-.22-1.86C22.6,20.74,22.68,20.68,22.77,20.68Z"/><path class="a" d="M25,27.82l-1.13,1a.29.29,0,0,1-.35,0l-1.13-1a.28.28,0,0,1-.09-.26l.56-3.94a.29.29,0,0,1,.26-.24h1.14a.29.29,0,0,1,.27.24l.57,3.94A.34.34,0,0,1,25,27.82Z"/></svg>